<?xml version="1.0" encoding="UTF-8" standalone="no"?>
<svg
   xmlns:dc="http://purl.org/dc/elements/1.1/"
   xmlns:cc="http://creativecommons.org/ns#"
   xmlns:rdf="http://www.w3.org/1999/02/22-rdf-syntax-ns#"
   xmlns:svg="http://www.w3.org/2000/svg"
   xmlns="http://www.w3.org/2000/svg"
   xmlns:sodipodi="http://sodipodi.sourceforge.net/DTD/sodipodi-0.dtd"
   xmlns:inkscape="http://www.inkscape.org/namespaces/inkscape"
   version="1.1"
   id="svg2"
   xml:space="preserve"
   width="120.02667"
   height="19.84"
   viewBox="0 0 120.02667 19.84"
   sodipodi:docname="autodesk-logo-cmyk-black-1line-small-v2.eps"><metadata
     id="metadata8"><rdf:RDF><cc:Work
         rdf:about=""><dc:format>image/svg+xml</dc:format><dc:type
           rdf:resource="http://purl.org/dc/dcmitype/StillImage" /></cc:Work></rdf:RDF></metadata><defs
     id="defs6" /><sodipodi:namedview
     pagecolor="#ffffff"
     bordercolor="#666666"
     borderopacity="1"
     objecttolerance="10"
     gridtolerance="10"
     guidetolerance="10"
     inkscape:pageopacity="0"
     inkscape:pageshadow="2"
     inkscape:window-width="640"
     inkscape:window-height="480"
     id="namedview4" /><g
     id="g10"
     inkscape:groupmode="layer"
     inkscape:label="ink_ext_XXXXXX"
     transform="matrix(1.3333333,0,0,-1.3333333,0,19.84)"><g
       id="g12"
       transform="scale(0.1)"><path
         d="M 36.0898,38.1406 H 7.29297 C 2.37109,38.1406 0,41.2539 0,41.2539 4.76563,32.2891 19.668,4.85938 19.668,4.85938 21.4648,1.73047 23.9258,0 27.9883,0 c 8,0 20.8633,8.28516 20.8633,8.28516 L 96.8398,38.1406 h -60.75 v 0"
         style="fill:#231f20;fill-opacity:1;fill-rule:nonzero;stroke:none"
         id="path14" /><path
         d="M 36.7031,138.922 2.44922,57.2422 C 0.394531,51.6992 1.71094,44.8398 11.7422,44.8398 h 27.1719 l 24,56.7582 c -8.1289,19.254 -14.5118,34.351 -14.5664,34.468 -0.8594,2.055 -2.3868,6.672 -6.1641,6.672 -3.8984,0 -5.0664,-2.82 -5.4805,-3.816 v 0"
         style="fill:#231f20;fill-opacity:1;fill-rule:nonzero;stroke:none"
         id="path16" /><path
         d="m 93.9375,144.781 c -0.3789,0.879 -1.9766,3.953 -6.4141,4.039 0.0547,0.008 -0.1953,0.008 -0.1953,0.008 H 44.3125 c 0,0 6.207,-0.543 8.793,-6.683 0,0 6.8906,-16.332 13.4609,-31.903 C 84.4805,67.8125 113.105,0 113.105,0 h 41.965 c 0,0 -60.7614,143.891 -61.1325,144.781 v 0"
         style="fill:#231f20;fill-opacity:1;fill-rule:nonzero;stroke:none"
         id="path18" /><path
         d="m 273.289,38.5898 h -15.965 l -8.73,20.7579 H 207.926 L 199.07,38.5898 h -15.468 l 37.839,86.6252 h 14.004 z M 228.203,107.152 213.457,72.7344 h 29.609 l -14.863,34.4176 v 0"
         style="fill:#231f20;fill-opacity:1;fill-rule:nonzero;stroke:none"
         id="path20" /><path
         d="m 412.727,38.5898 h -15.239 v 72.0082 h -27.281 v 14 h 71.023 l -5.859,-14 h -22.644 v -72.0082 0"
         style="fill:#231f20;fill-opacity:1;fill-rule:nonzero;stroke:none"
         id="path22" /><path
         d="M 702.051,110.598 H 655.996 V 88.7148 H 685.5 V 75.1914 H 655.996 V 52.3438 h 46.074 v -13.754 h -61.293 v 86.0082 h 61.274 v -14 0"
         style="fill:#231f20;fill-opacity:1;fill-rule:nonzero;stroke:none"
         id="path24" /><path
         d="m 810.043,38.5898 h -14.406 v 86.0082 h 14.406 v -86.0082 0"
         style="fill:#231f20;fill-opacity:1;fill-rule:nonzero;stroke:none"
         id="path26" /><path
         d="m 748.77,112.184 c -8.786,0 -16.258,-2.649 -16.297,-8.489 -0.039,-6.8239 4.246,-9.1911 20.425,-14.4528 17.872,-5.8867 27.368,-11.8633 27.274,-26.4024 -0.102,-16.3867 -12.77,-25.7343 -31.266,-25.7343 -13.097,0 -24.828,4.2422 -33.785,12.1289 l 5.574,13.4765 c 8.121,-6.8086 17.961,-11.6211 28.602,-11.6796 9.305,-0.0391 15.926,4.4804 15.926,11.2031 0,5.6054 -3.246,9.3359 -18.93,14.3047 -17.988,5.8984 -28.867,12.0586 -28.785,26.7149 0.117,14.574 13.793,22.867 30.988,22.781 17.195,-0.082 26.871,-6.367 28.336,-7.219 l -5.398,-12.265 c -3.512,1.89 -11.219,5.633 -22.664,5.633 v 0"
         style="fill:#231f20;fill-opacity:1;fill-rule:nonzero;stroke:none"
         id="path28" /><path
         d="m 828.617,82.9648 38.516,41.6332 H 848.684 L 810.043,82.9648 852.496,38.582 h 18.695 l -42.574,44.3828 v 0"
         style="fill:#231f20;fill-opacity:1;fill-rule:nonzero;stroke:none"
         id="path30" /><path
         d="m 487.805,126.074 c -24.571,0 -44.477,-19.926 -44.477,-44.4802 0,-24.5743 19.906,-44.4883 44.477,-44.4883 24.562,0 44.488,19.914 44.488,44.4883 0,24.5542 -19.926,44.4802 -44.488,44.4802 z m 0,-75.0896 c -16.903,0 -29.239,13.6992 -29.239,30.6094 0,16.8906 12.336,30.5902 29.239,30.5902 16.906,0 29.25,-13.6996 29.25,-30.5902 0,-16.9102 -12.344,-30.6094 -29.25,-30.6094 v 0"
         style="fill:#231f20;fill-opacity:1;fill-rule:nonzero;stroke:none"
         id="path32" /><path
         d="M 580.832,124.598 H 548.219 V 38.5898 h 32.613 c 24.563,0 44.481,18.5469 44.481,43.1211 0,24.5661 -19.918,42.8871 -44.481,42.8871 z m 0,-72.2542 h -17.371 v 58.2382 h 17.449 c 16.895,0 29.172,-11.9726 29.172,-28.8711 0,-16.9023 -12.355,-29.3671 -29.25,-29.3671 v 0"
         style="fill:#231f20;fill-opacity:1;fill-rule:nonzero;stroke:none"
         id="path34" /><path
         d="m 353.598,76.7031 c 0,-25.6406 -15.043,-39.4609 -36.868,-39.4609 -21.812,0 -36.859,13.8203 -36.859,39.4609 v 47.8949 h 15.231 V 74.8867 c 0,-15.039 8.839,-23.875 21.632,-23.875 12.801,0 21.633,8.836 21.633,23.875 v 49.7113 h 15.231 v -47.8949 0"
         style="fill:#231f20;fill-opacity:1;fill-rule:nonzero;stroke:none"
         id="path36" /><path
         d="m 900.215,49.5352 c 0,6.0468 -4.902,10.9531 -10.957,10.9531 -6.008,0 -10.918,-4.9063 -10.918,-10.9531 0,-6.0352 4.91,-10.9258 10.918,-10.9258 6.055,0 10.957,4.8906 10.957,10.9258 z m -1.645,0 c 0,-5.4766 -3.953,-9.3985 -9.312,-9.3985 -5.301,0 -9.281,3.9219 -9.281,9.3985 0,5.4609 3.98,9.4218 9.281,9.4218 5.359,0 9.312,-3.9609 9.312,-9.4218 v 0"
         style="fill:#231f20;fill-opacity:1;fill-rule:nonzero;stroke:none"
         id="path38" /><path
         d="m 894.012,43.9492 -2.641,3.7305 c -0.469,0.6641 -0.82,1.1055 -1.332,1.4961 1.918,0.2422 3.016,1.2695 3.016,2.914 0,1.6836 -1.176,3.1875 -3.473,3.1875 h -3.707 V 43.9492 h 1.641 v 5.0899 c 0.882,0 1.214,-0.2735 1.781,-1.1055 l 2.738,-3.9844 z m -2.719,8.1406 c 0,-1.625 -1.352,-1.7812 -2.621,-1.7812 h -1.156 v 3.582 h 1.683 c 1.547,0 2.094,-0.7461 2.094,-1.8008 v 0"
         style="fill:#231f20;fill-opacity:1;fill-rule:nonzero;stroke:none"
         id="path40" /></g></g></svg>
