<svg width="59" height="60" viewBox="0 0 59 60" fill="none" xmlns="http://www.w3.org/2000/svg">
<g filter="url(#filter0_d)">
<circle cx="29.7351" cy="30.1697" r="25.2517" fill="#38ABDF"/>
<circle cx="29.7351" cy="30.1697" r="22.3905" stroke="white" stroke-width="5.72249"/>
</g>
<path d="M37.258 26.5582C35.5136 26.6169 33.8189 27.1541 32.3591 28.1109C31.9443 27.536 31.3523 27.1132 30.6739 26.9072C30.8401 25.8775 31.3046 24.9192 32.01 24.1508C33.2137 22.9472 35.0433 22.7786 35.0433 20.9611C35.0433 19.5167 33.9961 18.1565 30.7221 18.1565C30.1099 18.0854 29.4896 18.1521 28.9066 18.3519C28.3237 18.5517 27.7928 18.8795 27.353 19.3112C26.9132 19.7429 26.5757 20.2676 26.3651 20.8468C26.1545 21.4259 26.0763 22.0449 26.1361 22.6583C26.1984 24.4039 26.7398 26.0987 27.7009 27.5572C27.1309 27.9769 26.7094 28.5671 26.4972 29.2424C25.463 29.0791 24.5 28.6143 23.7287 27.9063C22.5251 26.7026 22.3445 24.873 20.539 24.873C19.0705 24.873 17.7104 25.9082 17.7104 29.1942C17.6389 29.8075 17.7059 30.4289 17.9063 31.0129C18.1068 31.5968 18.4357 32.1284 18.8688 32.5684C19.3019 33.0084 19.8281 33.3457 20.4088 33.5554C20.9895 33.7651 21.6099 33.8419 22.2242 33.7802C23.9754 33.7183 25.6752 33.1725 27.1351 32.2034C27.5499 32.7783 28.1419 33.2011 28.8203 33.4071C28.6572 34.4449 28.1926 35.4118 27.4842 36.1875C26.2805 37.3912 24.451 37.5597 24.451 39.3652C24.451 40.8217 25.4981 42.1818 28.7721 42.1818C29.3843 42.253 30.0046 42.1862 30.5876 41.9864C31.1705 41.7866 31.7014 41.4589 32.1412 41.0272C32.581 40.5955 32.9185 40.0708 33.1291 39.4916C33.3397 38.9124 33.4179 38.2934 33.3581 37.6801C33.2939 35.9348 32.7528 34.2405 31.7933 32.7811C32.3682 32.3663 32.7911 31.7743 32.997 31.096C34.0299 31.2559 34.9927 31.7164 35.7655 32.42C36.9691 33.6237 37.1376 35.4653 38.9552 35.4653C40.3996 35.4653 41.7597 34.4181 41.7597 31.1321C41.8313 30.5205 41.7647 29.9005 41.5648 29.318C41.365 28.7355 41.037 28.2053 40.605 27.7664C40.173 27.3274 39.648 26.991 39.0688 26.7819C38.4895 26.5728 37.8707 26.4964 37.258 26.5582ZM29.7471 28.6646C30.0452 28.6622 30.3373 28.7484 30.5863 28.9123C30.8353 29.0762 31.03 29.3103 31.1457 29.585C31.2614 29.8597 31.293 30.1626 31.2363 30.4553C31.1796 30.7479 31.0372 31.0171 30.8273 31.2288C30.6174 31.4404 30.3493 31.5849 30.0571 31.6439C29.7649 31.703 29.4618 31.6739 29.1862 31.5604C28.9105 31.4468 28.6748 31.254 28.509 31.0063C28.3431 30.7586 28.2546 30.4673 28.2546 30.1692C28.2545 29.7722 28.4114 29.3913 28.691 29.1095C28.9705 28.8277 29.3502 28.6678 29.7471 28.6646Z" fill="white"/>
<defs>
<filter id="filter0_d" x="0.483398" y="0.917969" width="58.5035" height="58.5035" filterUnits="userSpaceOnUse" color-interpolation-filters="sRGB">
<feFlood flood-opacity="0" result="BackgroundImageFix"/>
<feColorMatrix in="SourceAlpha" type="matrix" values="0 0 0 0 0 0 0 0 0 0 0 0 0 0 0 0 0 0 127 0"/>
<feOffset/>
<feGaussianBlur stdDeviation="2"/>
<feColorMatrix type="matrix" values="0 0 0 0 0 0 0 0 0 0 0 0 0 0 0 0 0 0 0.25 0"/>
<feBlend mode="normal" in2="BackgroundImageFix" result="effect1_dropShadow"/>
<feBlend mode="normal" in="SourceGraphic" in2="effect1_dropShadow" result="shape"/>
</filter>
</defs>
</svg>
