<svg width="16" height="16" viewBox="0 0 16 16" fill="none" xmlns="http://www.w3.org/2000/svg">
<path d="M13.0349 5.77599C11.9509 5.8125 10.8978 6.14628 9.99073 6.74085C9.73297 6.38362 9.3651 6.12086 8.94359 5.9929C9.04686 5.35304 9.33551 4.75753 9.77382 4.28008C10.5218 3.53212 11.6587 3.42741 11.6587 2.298C11.6587 1.40045 11.0079 0.555259 8.97351 0.555259C8.59313 0.511025 8.20767 0.552507 7.84541 0.676663C7.48315 0.800819 7.15327 1.0045 6.87999 1.27276C6.60671 1.54102 6.39695 1.86706 6.2661 2.22695C6.13525 2.58685 6.08662 2.97148 6.1238 3.35261C6.16254 4.43732 6.49892 5.49047 7.09614 6.39679C6.742 6.6576 6.48004 7.02434 6.34818 7.44393C5.70555 7.34249 5.10714 7.05368 4.62789 6.6137C3.87993 5.86574 3.76774 4.72885 2.6458 4.72885C1.7333 4.72885 0.88811 5.37209 0.88811 7.41401C0.843682 7.79508 0.885287 8.18126 1.00986 8.54413C1.13443 8.90699 1.3388 9.23729 1.60792 9.51072C1.87704 9.78415 2.20406 9.99373 2.5649 10.1241C2.92574 10.2544 3.31122 10.3021 3.69294 10.2637C4.78114 10.2253 5.83742 9.88613 6.7446 9.2839C7.00236 9.64113 7.37022 9.90389 7.79174 10.0319C7.69041 10.6767 7.4017 11.2776 6.96151 11.7596C6.21355 12.5076 5.07666 12.6123 5.07666 13.7342C5.07666 14.6393 5.72738 15.4845 7.76182 15.4845C8.1422 15.5287 8.52766 15.4872 8.88992 15.363C9.25218 15.2389 9.58205 15.0352 9.85534 14.767C10.1286 14.4987 10.3384 14.1727 10.4692 13.8128C10.6001 13.4529 10.6487 13.0682 10.6115 12.6871C10.5716 11.6026 10.2354 10.5497 9.63919 9.64292C9.99642 9.38516 10.2592 9.01729 10.3871 8.59578C11.0289 8.69511 11.6273 8.98126 12.1074 9.41853C12.8554 10.1665 12.9601 11.3109 14.0895 11.3109C14.9871 11.3109 15.8323 10.6601 15.8323 8.61822C15.8767 8.23813 15.8353 7.85291 15.7111 7.49095C15.5869 7.12898 15.3831 6.79949 15.1147 6.52675C14.8463 6.25401 14.5201 6.04498 14.1601 5.91504C13.8002 5.78511 13.4157 5.73759 13.0349 5.77599ZM8.36766 7.08491C8.55289 7.08343 8.73438 7.137 8.88911 7.23883C9.04385 7.34066 9.16484 7.48615 9.23675 7.65685C9.30867 7.82756 9.32825 8.01577 9.29303 8.19763C9.2578 8.37948 9.16935 8.54677 9.0389 8.67827C8.90845 8.80977 8.74187 8.89956 8.56031 8.93625C8.37875 8.97294 8.19038 8.95486 8.0191 8.88432C7.84783 8.81378 7.70137 8.69396 7.5983 8.54005C7.49523 8.38614 7.44021 8.20509 7.4402 8.01986C7.44019 7.77318 7.53767 7.5365 7.71139 7.36138C7.88511 7.18626 8.121 7.08688 8.36766 7.08491Z" fill="#D0D0D0"/>
</svg>
