<?xml version="1.0" encoding="UTF-8" standalone="no"?>
<svg xmlns:dc="http://purl.org/dc/elements/1.1/"
     xmlns:cc="http://creativecommons.org/ns#"
     xmlns:rdf="http://www.w3.org/1999/02/22-rdf-syntax-ns#"
     xmlns:svg="http://www.w3.org/2000/svg"
     xmlns="http://www.w3.org/2000/svg"
     version="1.1"
     id="Capa_1"
     x="0px"
     y="0px"
     viewBox="0 0 24 24"
     xml:space="preserve"
     width="24"
     height="24">
     <metadata id="metadata47">
          <rdf:RDF>
               <cc:Work rdf:about="">
                    <dc:format>image/svg+xml</dc:format>
                    <dc:type rdf:resource="http://purl.org/dc/dcmitype/StillImage" />
                    <dc:title></dc:title>
               </cc:Work>
          </rdf:RDF>
     </metadata>
     <g id="g872"
          transform="matrix(0.07184761,0.0602873,-0.0602873,0.07184761,10.575409,-4.8581404)">
          <circle id="path26"
               cx="128"
               cy="128"
               style="fill:#ffffff;fill-opacity:1;stroke:none;stroke-width:2.57011;stroke-opacity:1"
               r="123" />
          <g id="g10"
               transform="scale(0.85714477)">
               <path d="m 162.466,137.052 c 7.732,-7.119 39.268,-38.192 36.846,-69.387 -2.057,-26.462 -32.63,-34.426 -49.585,-34.426 -16.956,0 -47.464,7.964 -49.52,34.426 -2.373,30.564 27.901,61.014 36.41,68.928 3.257,-3.25 7.751,-5.26 12.716,-5.26 5.187,0 9.849,2.207 13.133,5.719 z"
                    id="path2" />
               <path d="m 131.332,149.333 c 0,-3.023 0.754,-5.867 2.07,-8.369 -11.169,-3.415 -52.577,-14.314 -77.824,3 -21.89,15.012 -13.499,45.469 -5.021,60.154 8.479,14.684 30.628,37.122 54.573,25.672 25.487,-12.189 37.025,-48.342 40.714,-62.802 -8.271,-1.626 -14.512,-8.908 -14.512,-17.655 z"
                    id="path4" />
               <path d="m 243.072,144.464 c -25.053,-17.181 -66.036,-6.541 -77.584,-3.028 1.169,2.387 1.844,5.061 1.844,7.897 0,8.808 -6.33,16.125 -14.686,17.682 3.546,14.076 15.072,50.938 40.874,63.275 23.944,11.452 46.128,-11.043 54.606,-25.729 8.478,-14.683 16.835,-45.084 -5.054,-60.097 z"
                    id="path6" />
               <path d="M 149.333,0 C 66.99,0 0,66.99 0,149.333 c 0,82.343 66.99,149.333 149.333,149.333 82.343,0 149.333,-66.99 149.333,-149.333 C 298.666,66.99 231.676,0 149.333,0 Z m 0,282.666 C 75.812,282.666 16,222.854 16,149.333 16,75.812 75.812,16 149.333,16 c 73.521,0 133.333,59.813 133.333,133.333 0,73.52 -59.813,133.333 -133.333,133.333 z"
                    id="path8" />
          </g>
     </g>
</svg>
