<svg width="59" height="59" viewBox="0 0 59 59" fill="none" xmlns="http://www.w3.org/2000/svg">
<g filter="url(#filter0_d)">
<circle cx="29.4998" cy="29.2517" r="25.2517" fill="#EC5D52"/>
<circle cx="29.4998" cy="29.2517" r="22.3905" stroke="white" stroke-width="5.72249"/>
</g>
<path fill-rule="evenodd" clip-rule="evenodd" d="M35.5508 29.3199L29.3997 17.457L23.2461 29.3247C22.8827 29.8478 22.5844 30.4195 22.3628 31.0281L22.3432 31.066H22.3492C22.0672 31.8538 21.9136 32.7027 21.9136 33.5874C21.9136 37.7203 25.2654 41.0707 29.4001 41.0707C33.5349 41.0707 36.8867 37.7203 36.8867 33.5874C36.8867 32.7027 36.7331 31.8538 36.4511 31.066H36.4562L36.4394 31.0336C36.217 30.4211 35.9168 29.8459 35.5508 29.3199Z" fill="white"/>
<defs>
<filter id="filter0_d" x="0.248047" y="0" width="58.5035" height="58.5035" filterUnits="userSpaceOnUse" color-interpolation-filters="sRGB">
<feFlood flood-opacity="0" result="BackgroundImageFix"/>
<feColorMatrix in="SourceAlpha" type="matrix" values="0 0 0 0 0 0 0 0 0 0 0 0 0 0 0 0 0 0 127 0"/>
<feOffset/>
<feGaussianBlur stdDeviation="2"/>
<feColorMatrix type="matrix" values="0 0 0 0 0 0 0 0 0 0 0 0 0 0 0 0 0 0 0.25 0"/>
<feBlend mode="normal" in2="BackgroundImageFix" result="effect1_dropShadow"/>
<feBlend mode="normal" in="SourceGraphic" in2="effect1_dropShadow" result="shape"/>
</filter>
</defs>
</svg>
