<?xml version="1.0" encoding="UTF-8" standalone="no"?>
<svg
   xmlns:dc="http://purl.org/dc/elements/1.1/"
   xmlns:cc="http://creativecommons.org/ns#"
   xmlns:rdf="http://www.w3.org/1999/02/22-rdf-syntax-ns#"
   xmlns:svg="http://www.w3.org/2000/svg"
   xmlns="http://www.w3.org/2000/svg"
   xmlns:sodipodi="http://sodipodi.sourceforge.net/DTD/sodipodi-0.dtd"
   xmlns:inkscape="http://www.inkscape.org/namespaces/inkscape"
   inkscape:version="1.0 (4035a4fb49, 2020-05-01)"
   height="24"
   width="24"
   sodipodi:docname="light.svg"
   xml:space="preserve"
   viewBox="0 0 24 24"
   y="0px"
   x="0px"
   id="Layer_1"
   version="1.1"><metadata
   id="metadata22"><rdf:RDF><cc:Work
       rdf:about=""><dc:format>image/svg+xml</dc:format><dc:type
         rdf:resource="http://purl.org/dc/dcmitype/StillImage" /><dc:title></dc:title></cc:Work></rdf:RDF></metadata><defs
   id="defs20" /><sodipodi:namedview
   inkscape:current-layer="Layer_1"
   inkscape:window-maximized="1"
   inkscape:window-y="-6"
   inkscape:window-x="-6"
   inkscape:cy="40.4"
   inkscape:cx="47.45"
   inkscape:zoom="6.6666667"
   showgrid="false"
   id="namedview18"
   inkscape:window-height="850"
   inkscape:window-width="1368"
   inkscape:pageshadow="2"
   inkscape:pageopacity="0"
   guidetolerance="10"
   gridtolerance="10"
   objecttolerance="10"
   borderopacity="1"
   bordercolor="#666666"
   pagecolor="#ffffff" />
<style
   id="style2"
   type="text/css">
	.st0{fill:#C75C5C;}
	.st1{fill:#E0E0D1;}
	.st2{fill:#F5CF87;}
	.st3{fill:#A65050;}
	.st4{fill:#CBAC72;}
	.st5{fill:#BAB9AE;}
	.st6{fill:#FFFFFF;}
</style>
<g
   transform="matrix(0.36923077,0,0,0.36923077,-5.7230769,-5.7230769)"
   id="XMLID_1_">
	<path
   d="M 48,15.5 C 65.9,15.5 80.5,30.1 80.5,48 80.5,65.9 65.9,80.5 48,80.5 30.1,80.5 15.5,65.9 15.5,48 15.5,30.1 30.1,15.5 48,15.5"
   class="st0"
   id="XMLID_3_" />
	<path
   d="m 39.9,56.1 c 0,-0.5 0.6,-0.5 1.1,-0.8 l 6.1,-3.6 c 0.5,-0.3 1.3,-0.3 1.7,0 l 6.1,3.6 c 0.5,0.3 1.1,0.2 1.1,0.8 v 7.5 c 0,0.5 -0.6,1.5 -1.1,1.8 L 48.8,69 c -0.5,0.3 -1.3,0.3 -1.7,0 L 41,65.5 c -0.5,-0.3 -1.1,-1.2 -1.1,-1.8 v -7.6"
   class="st1"
   id="XMLID_4_" />
	<path
   d="m 48,61.2 c -9.5,0 -17.3,-7.7 -17.3,-17.3 0,-9.6 7.8,-17.2 17.3,-17.2 9.5,0 17.3,7.7 17.3,17.3 0,9.6 -7.8,17.2 -17.3,17.2"
   class="st2"
   id="XMLID_5_" />
	<path
   d="m 48,27.7 c 8.9,0 16.3,7.3 16.3,16.2 C 64.3,52.8 57,60.2 48,60.2 39.1,60.2 31.8,52.9 31.8,43.9 31.7,35 39.1,27.7 48,27.7 m 0,-2 C 37.9,25.7 29.7,33.9 29.7,44 29.7,54.1 37.9,62.3 48,62.3 58.1,62.3 66.3,54.1 66.3,44 66.3,33.9 58.1,25.7 48,25.7"
   class="st0"
   id="XMLID_8_" />
	<path
   d="m 39.9,63.6 v 2 c 0,0.6 0.6,1.5 1.1,1.8 l 6.1,3.6 c 0.3,0.2 0.6,0.2 0.9,0.2 0.3,0 0.6,-0.1 0.8,-0.2 l 6.1,-3.6 C 55.4,67.1 56,66.2 56,65.6 v -1.9 c 0,0.6 -0.6,1.5 -1.1,1.8 l -6.1,3.6 c -0.2,0.2 -0.5,0.2 -0.8,0.2 -0.3,0 -0.6,-0.1 -0.9,-0.2 L 41,65.6 c -0.5,-0.3 -1.1,-1.2 -1.1,-1.8 v -0.2 0"
   class="st3"
   id="XMLID_9_" />
	<path
   d="m 39.9,56.2 v 7.5 c 0,0.6 0.6,1.5 1.1,1.8 l 6.1,3.6 c 0.5,0.3 1.3,0.3 1.7,0 l 6.1,-3.6 C 55.4,65.2 56,64.3 56,63.7 v -7.5 c -2.4,1.2 -5.2,1.9 -8.1,1.9 -2.9,0.1 -5.6,-0.7 -8,-1.9"
   class="st1"
   id="XMLID_10_" />
	<path
   d="m 48,29.7 c -8.6,0 -15.7,6.7 -16.2,15.2 0.3,5.6 3.5,10.4 8.1,13 v -1.8 c 2.4,1.2 5.1,1.9 8,1.9 2.9,0 5.7,-0.7 8.1,-1.9 v 1.8 C 60.6,55.3 63.8,50.4 64.2,44.8 63.7,36.5 56.6,29.7 48,29.7"
   class="st4"
   id="XMLID_11_" />
	<path
   d="m 31.8,44.9 c 0,0.3 0,0.7 0,1 0,6 3.3,11.3 8.1,14.1 V 58 C 35.3,55.3 32.1,50.5 31.8,44.9 m 32.4,0 C 63.9,50.5 60.6,55.4 56,58 v 2 c 4.9,-2.8 8.2,-8.1 8.2,-14.1 0.1,-0.3 0,-0.6 0,-1"
   class="st3"
   id="XMLID_14_" />
	<path
   d="m 56,56.2 c -2.4,1.2 -5.2,1.9 -8.1,1.9 -2.9,0 -5.6,-0.7 -8,-1.9 v 1.8 2 c 2.4,1.4 5.2,2.2 8.1,2.2 2.9,0 5.7,-0.8 8,-2.1 v -2 -1.9"
   class="st5"
   id="XMLID_15_" />
	<circle
   r="16.299999"
   cy="43.900002"
   cx="48"
   class="st2"
   id="XMLID_16_" />
	<path
   d="m 48,57.7 c -0.8,0 -1.5,-0.7 -1.5,-1.5 V 48 c -2.7,-0.1 -4.9,-0.8 -6.5,-2 -1.6,-1.2 -2.5,-2.9 -2.5,-4.9 0,-3.3 2.5,-5.8 5.7,-5.8 1.7,0 3.1,0.6 4.3,1.7 2.3,2.4 2.1,6.5 2.1,7 V 56.2 C 49.5,57 48.8,57.7 48,57.7 Z M 43.1,38.4 c -1.6,0 -2.6,1.4 -2.6,2.7 0,0.6 0.2,1.6 1.3,2.4 0.8,0.6 2.1,1.2 4.7,1.4 v -1 c 0,-0.9 -0.1,-3.6 -1.3,-4.8 -0.6,-0.5 -1.3,-0.7 -2.1,-0.7 z"
   class="st6"
   id="XMLID_19_" />
	<path
   d="m 48,57.7 c -0.8,0 -1.5,-0.7 -1.5,-1.5 V 43.9 c 0,-0.4 -0.2,-4.5 2.1,-6.9 1.1,-1.1 2.5,-1.7 4.3,-1.7 3.1,0 5.7,2.6 5.7,5.8 0,1.9 -0.9,3.7 -2.5,4.9 -1.6,1.2 -3.8,1.8 -6.5,2 v 8.2 C 49.5,57 48.8,57.7 48,57.7 Z m 4.9,-19.3 c -0.9,0 -1.5,0.3 -2,0.8 -1.2,1.3 -1.3,3.9 -1.3,4.7 V 45 c 2.4,-0.2 3.9,-0.8 4.7,-1.4 1.1,-0.8 1.3,-1.8 1.3,-2.4 -0.1,-1.4 -1.1,-2.8 -2.7,-2.8 z"
   class="st6"
   id="XMLID_22_" />
</g>
</svg>
