<svg width="59" height="59" viewBox="0 0 59 59" fill="none" xmlns="http://www.w3.org/2000/svg">
<g filter="url(#filter0_d)">
<circle cx="29.4004" cy="29.3184" r="25.25" fill="#535353"/>
<circle cx="29.4004" cy="29.3184" r="22.3682" stroke="white" stroke-width="5.76352"/>
</g>
<circle cx="29.4005" cy="29.5656" r="2.15709" transform="rotate(180 29.4005 29.5656)" fill="white"/>
<path fill-rule="evenodd" clip-rule="evenodd" d="M41.8761 29.5638C41.8761 26.3797 40.6832 23.4741 38.7199 21.2697C38.375 20.8825 38.3316 20.3018 38.651 19.8934C39.0189 19.423 39.7142 19.3687 40.1163 19.8102C42.461 22.3847 43.8904 25.8073 43.8904 29.5638C43.8904 33.2284 42.5301 36.5752 40.2868 39.1268C39.8803 39.5893 39.1595 39.5289 38.7931 39.0341C38.4944 38.6306 38.538 38.0725 38.8652 37.6918C40.7419 35.5086 41.8761 32.6686 41.8761 29.5638ZM20.0075 39.0335C20.3061 38.63 20.2626 38.072 19.9354 37.6913C18.059 35.5081 16.925 32.6684 16.925 29.5638C16.925 26.3798 18.1178 23.4743 20.081 21.2699C20.4258 20.8827 20.4693 20.302 20.1498 19.8936C19.7819 19.4232 19.0867 19.3689 18.6846 19.8105C16.34 22.3849 14.9106 25.8074 14.9106 29.5638C14.9106 33.2281 16.2708 36.5746 18.5137 39.1262C18.9202 39.5887 19.6411 39.5283 20.0075 39.0335ZM22.3105 35.9226C21.9288 36.4382 21.1703 36.4833 20.7871 35.9689C19.4554 34.181 18.6672 31.9643 18.6672 29.5636C18.6672 27.0254 19.5482 24.693 21.0211 22.8555C21.4055 22.3761 22.1262 22.4206 22.5048 22.9046C22.8154 23.3018 22.7844 23.8625 22.4775 24.2626C21.351 25.7316 20.6815 27.5694 20.6815 29.5636C20.6815 31.4458 21.278 33.1888 22.2922 34.6137C22.5712 35.0058 22.5969 35.5359 22.3105 35.9226ZM36.4899 35.923C36.8716 36.4385 37.63 36.4837 38.0132 35.9693C39.3451 34.1813 40.1335 31.9645 40.1335 29.5636C40.1335 27.0254 39.2524 24.693 37.7795 22.8556C37.3952 22.3761 36.6744 22.4206 36.2959 22.9046C35.9852 23.3018 36.0163 23.8625 36.3231 24.2626C37.4496 25.7316 38.1191 27.5694 38.1191 29.5636C38.1191 31.446 37.5226 33.189 36.5082 34.614C36.2292 35.0061 36.2035 35.5362 36.4899 35.923ZM33.9149 32.4449C34.3432 33.0234 35.2103 33.0221 35.511 32.3682C35.9034 31.5145 36.1222 30.5645 36.1222 29.5634C36.1222 28.3551 35.8034 27.2213 35.2453 26.2414C34.9165 25.664 34.1246 25.6808 33.7152 26.2043C33.4275 26.5721 33.4282 27.0809 33.633 27.5006C33.9372 28.1235 34.1079 28.8235 34.1079 29.5634C34.1079 30.1576 33.9978 30.7261 33.7969 31.2495C33.6444 31.647 33.6616 32.1027 33.9149 32.4449ZM24.8851 32.4451C25.1384 32.1029 25.1555 31.6472 25.003 31.2497C24.8021 30.7262 24.692 30.1577 24.692 29.5634C24.692 28.8233 24.8628 28.1231 25.1671 27.5001C25.372 27.0804 25.3727 26.5716 25.085 26.2037C24.6756 25.6803 23.8838 25.6634 23.5549 26.2407C22.9966 27.2207 22.6776 28.3549 22.6776 29.5634C22.6776 30.5646 22.8965 31.5147 23.289 32.3684C23.5897 33.0224 24.4568 33.0236 24.8851 32.4451ZM28.9538 44.047C29.1022 44.0514 29.2511 44.0537 29.4005 44.0537C29.55 44.0537 29.6989 44.0514 29.8473 44.047L28.9538 44.047Z" fill="white"/>
<defs>
<filter id="filter0_d" x="0.121706" y="0.0396748" width="58.5574" height="58.5574" filterUnits="userSpaceOnUse" color-interpolation-filters="sRGB">
<feFlood flood-opacity="0" result="BackgroundImageFix"/>
<feColorMatrix in="SourceAlpha" type="matrix" values="0 0 0 0 0 0 0 0 0 0 0 0 0 0 0 0 0 0 127 0"/>
<feOffset/>
<feGaussianBlur stdDeviation="2.01434"/>
<feColorMatrix type="matrix" values="0 0 0 0 0 0 0 0 0 0 0 0 0 0 0 0 0 0 0.25 0"/>
<feBlend mode="normal" in2="BackgroundImageFix" result="effect1_dropShadow"/>
<feBlend mode="normal" in="SourceGraphic" in2="effect1_dropShadow" result="shape"/>
</filter>
</defs>
</svg>
