<?xml version="1.0" encoding="UTF-8" standalone="no"?>
<svg xmlns:dc="http://purl.org/dc/elements/1.1/"
     xmlns:cc="http://creativecommons.org/ns#"
     xmlns:rdf="http://www.w3.org/1999/02/22-rdf-syntax-ns#"
     xmlns:svg="http://www.w3.org/2000/svg"
     xmlns="http://www.w3.org/2000/svg"
     version="1.1"
     id="Capa_1"
     x="0px"
     y="0px"
     viewBox="0 0 47.999999 47.999999"
     xml:space="preserve"
     width="48"
     height="48">
     <metadata id="metadata45">
          <rdf:RDF>
               <cc:Work rdf:about="">
                    <dc:format>image/svg+xml</dc:format>
                    <dc:type rdf:resource="http://purl.org/dc/dcmitype/StillImage" />
                    <dc:title></dc:title>
               </cc:Work>
          </rdf:RDF>
     </metadata>
     <defs id="defs43">
     </defs>
     <g id="g78"
          transform="matrix(0.75973409,0,0,0.75973152,0,-0.36087247)">
          <path id="path-1_10_"
               style="fill:#edc951"
               d="m 61.441,32.881 c 0,16.616 -13.472,30.086 -30.09,30.086 -16.618,0 -30.089,-13.47 -30.089,-30.086 0,-16.616 13.471,-30.086 30.089,-30.086 16.618,0 30.09,13.47 30.09,30.086 z" />
          <path id="path-2_10_"
               d="m 45.647,23.776 c 0,2.01 -1.629,3.639 -3.639,3.639 -2.011,0 -3.641,-1.629 -3.641,-3.639 0,-2.01 1.63,-3.639 3.641,-3.639 2.01,0 3.639,1.629 3.639,3.639 z" />
          <path id="path-3_10_"
               d="m 24.718,23.776 c 0,2.01 -1.629,3.639 -3.64,3.639 -2.01,0 -3.64,-1.629 -3.64,-3.639 0,-2.01 1.63,-3.639 3.64,-3.639 2.011,0 3.64,1.629 3.64,3.639 z" />
          <path id="path-4_10_"
               d="m 34.374,50.737 h -5.055 c -6.403,0 -11.611,-5.145 -11.611,-11.469 0,-0.829 0.671,-1.5 1.5,-1.5 0.828,0 1.5,0.671 1.5,1.5 0,4.749 3.782,8.469 8.611,8.469 h 5.055 c 4.828,0 8.611,-3.658 8.611,-8.329 0,-0.829 0.671,-1.5 1.5,-1.5 0.828,0 1.5,0.671 1.5,1.5 0,6.353 -5.1,11.329 -11.611,11.329 z" />
          <path id="path-5_10_"
               d="M 31.59,63.646 C 14.171,63.646 0,49.477 0,32.06 0,14.644 14.171,0.475 31.59,0.475 c 17.418,0 31.59,14.169 31.59,31.585 0,17.417 -14.172,31.586 -31.59,31.586 z m 0,-60.171 C 15.825,3.475 3,16.298 3,32.06 3,47.823 15.825,60.647 31.59,60.647 47.354,60.647 60.18,47.823 60.18,32.06 60.18,16.298 47.354,3.475 31.59,3.475 Z" />
          <g id="g10">
          </g>
          <g id="g12">
          </g>
          <g id="g14">
          </g>
          <g id="g16">
          </g>
          <g id="g18">
          </g>
          <g id="g20">
          </g>
          <g id="g22">
          </g>
          <g id="g24">
          </g>
          <g id="g26">
          </g>
          <g id="g28">
          </g>
          <g id="g30">
          </g>
          <g id="g32">
          </g>
          <g id="g34">
          </g>
          <g id="g36">
          </g>
          <g id="g38">
          </g>
     </g>
</svg>
